HIERARCHY
ROOT hip
{
	OFFSET 0.000000 0.000000 0.000000
	CHANNELS 6 Xposition Yposition Zposition Xrotation Zrotation Yrotation 
	JOINT abdomen
	{
		OFFSET 0.000000 3.422050 0.000000
		CHANNELS 3 Xrotation Zrotation Yrotation 
		JOINT chest
		{
			OFFSET 0.000000 8.486693 -0.684411
			CHANNELS 3 Xrotation Zrotation Yrotation 
			JOINT neck
			{
				OFFSET 0.000000 10.266162 -0.273764
				CHANNELS 3 Xrotation Zrotation Yrotation 
				JOINT head
				{
					OFFSET 0.000000 3.148285 0.000000
					CHANNELS 3 Xrotation Zrotation Yrotation 
					End Site
					{
						OFFSET 0.000000 3.148289 0.000000
					}
				}
			}
			JOINT lCollar
			{
				OFFSET 3.422053 6.707223 -0.821293
				CHANNELS 3 Yrotation Zrotation Xrotation 
				JOINT lShldr
				{
					OFFSET 3.285171 0.000000 0.000000
					CHANNELS 3 Zrotation Yrotation Xrotation 
					JOINT lForeArm
					{
						OFFSET 10.129278 0.000000 0.000000
						CHANNELS 3 Yrotation Zrotation Xrotation 
						JOINT lHand
						{
							OFFSET 8.486692 0.000000 0.000000
							CHANNELS 3 Zrotation Yrotation Xrotation 
							End Site
							{
								OFFSET 4.106464 0.000000 0.000000
							}
						}
					}
				}
			}
			JOINT rCollar
			{
				OFFSET -3.558935 6.707223 -0.821293
				CHANNELS 3 Yrotation Zrotation Xrotation 
				JOINT rShldr
				{
					OFFSET -3.148289 0.000000 0.000000
					CHANNELS 3 Zrotation Yrotation Xrotation 
					JOINT rForeArm
					{
						OFFSET -10.266159 0.000000 0.000000
						CHANNELS 3 Yrotation Zrotation Xrotation 
						JOINT rHand
						{
							OFFSET -8.349810 0.000000 0.000000
							CHANNELS 3 Zrotation Yrotation Xrotation 
							End Site
							{
								OFFSET -4.106464 0.000000 0.000000
							}
						}
					}
				}
			}
		}
	}
	JOINT lThigh
	{
		OFFSET 5.338403 -1.642589 1.368821
		CHANNELS 3 Xrotation Zrotation Yrotation 
		JOINT lShin
		{
			OFFSET -2.053232 -20.121670 0.000000
			CHANNELS 3 Xrotation Zrotation Yrotation 
			JOINT lFoot
			{
				OFFSET 0.000000 -19.300380 -1.231939
				CHANNELS 3 Xrotation Yrotation Zrotation 
				End Site
				{
					OFFSET 0.000000 -2.463878 4.653993
				}
			}
		}
	}
	JOINT rThigh
	{
		OFFSET -5.338403 -1.642589 1.368821
		CHANNELS 3 Xrotation Zrotation Yrotation 
		JOINT rShin
		{
			OFFSET 2.053232 -20.121670 0.000000
			CHANNELS 3 Xrotation Zrotation Yrotation 
			JOINT rFoot
			{
				OFFSET 0.000000 -19.300380 -1.231939
				CHANNELS 3 Xrotation Yrotation Zrotation 
				End Site
				{
					OFFSET 0.000000 -2.463878 4.653993
				}
			}
		}
	}
}
MOTION
Frames: 8
Frame Time: 0.049989
0.000000 43.528500 0.000000 0.000000 0.000000 0.000000 0.000000 0.000000 0.000000 0.000000 0.000000 0.000000 0.000000 0.000000 0.000000 0.000000 0.000000 0.000000 0.000000 0.000000 0.000000 0.000000 0.000000 0.000000 0.000000 0.000000 0.000000 0.000000 0.000000 0.000000 0.000000 0.000000 0.000000 0.000000 0.000000 0.000000 0.000000 0.000000 0.000000 0.000000 0.000000 0.000000 0.000000 0.000000 0.000000 0.000000 0.000000 0.000000 0.000000 0.000000 0.000000 0.000000 0.000000 0.000000 0.000000 0.000000 0.000000 0.000000 0.000000 0.000000 
19.995884 43.519489 0.946182 3.999748 0.000000 0.000000 8.619786 -0.061753 -0.041477 -6.607344 -0.137149 -0.585828 -0.676696 0.000000 0.000000 -0.264035 0.000000 0.000000 7.688895 -4.900498 0.773297 -53.887783 7.756097 24.007860 -48.928585 -28.057491 -14.952393 -7.000325 0.000000 0.000000 -7.692362 4.896988 0.773203 53.883286 -7.758317 24.006573 48.923084 28.054810 -14.949429 6.996825 0.000000 0.000000 -9.048318 8.063324 2.383873 13.078233 -3.062464 -0.233164 -2.518382 -0.986814 3.576680 -8.571336 -6.034223 -5.321401 13.023112 5.876436 0.176146 -2.364174 3.596770 -8.913136 
19.995884 43.519489 1.014266 3.777578 0.000000 0.000000 8.120263 -0.061736 -0.041394 -6.274262 -0.137181 -0.585782 0.104127 0.000000 0.000000 -0.264035 0.000000 0.000000 7.688895 -4.900498 0.773297 -53.887783 7.756096 24.007858 -48.928581 -28.057491 -14.952391 -7.000325 0.000000 0.000000 -7.692362 4.896988 0.773203 53.883282 -7.758315 24.006571 48.923084 28.054810 -14.949429 6.996825 0.000000 0.000000 -8.643881 8.077867 2.486593 13.078233 -3.062464 -0.233164 -2.518382 -0.986814 3.576680 -8.162530 -6.062842 -5.502403 13.023112 5.876436 0.176146 -2.364174 3.596770 -8.913136 
19.995884 43.519489 1.082350 3.555394 0.000000 0.000000 7.620586 -0.061718 -0.041312 -5.941133 -0.137212 -0.585737 0.886549 0.000000 0.000000 -0.264035 0.000000 0.000000 7.688894 -4.900498 0.773297 -53.887779 7.756097 24.007858 -48.928585 -28.057489 -14.952391 -7.000325 0.000000 0.000000 -7.692360 4.896987 0.773202 53.883286 -7.758317 24.006571 48.923084 28.054810 -14.949429 6.996825 0.000000 0.000000 -8.239323 8.091691 2.589437 13.078232 -3.062464 -0.233164 -2.518381 -0.986814 3.576680 -7.753520 -6.090180 -5.683654 13.023112 5.876436 0.176146 -2.364174 3.596770 -8.913136 
19.995884 43.519489 1.150433 3.333199 0.000000 0.000000 7.120778 -0.061699 -0.041229 -5.607965 -0.137244 -0.585692 1.670501 0.000000 0.000000 -0.264035 0.000000 0.000000 7.688895 -4.900498 0.773297 -53.887783 7.756097 24.007860 -48.928585 -28.057495 -14.952394 -7.000325 0.000000 0.000000 -7.692362 4.896989 0.773203 53.883286 -7.758316 24.006573 48.923088 28.054815 -14.949430 6.996825 0.000000 0.000000 -7.834654 8.104797 2.692400 13.078234 -3.062464 -0.233164 -2.518382 -0.986814 3.576680 -7.344327 -6.116238 -5.865145 13.023113 5.876436 0.176146 -2.364174 3.596770 -8.913136 
19.995884 43.519489 1.218517 3.110993 0.000000 0.000000 6.620854 -0.061679 -0.041147 -5.274764 -0.137276 -0.585647 2.455915 0.000000 0.000000 -0.264035 0.000000 0.000000 7.688895 -4.900498 0.773297 -53.887783 7.756097 24.007860 -48.928585 -28.057491 -14.952393 -7.000325 0.000000 0.000000 -7.692362 4.896988 0.773203 53.883289 -7.758317 24.006575 48.923084 28.054810 -14.949429 6.996825 0.000000 0.000000 -7.429893 8.117189 2.795472 13.078233 -3.062464 -0.233164 -2.518382 -0.986814 3.576680 -6.934961 -6.141009 -6.046855 13.023112 5.876436 0.176146 -2.364174 3.596770 -8.913137 
19.995884 43.519489 1.286601 2.888780 0.000000 0.000000 6.120835 -0.061659 -0.041064 -4.941535 -0.137308 -0.585603 3.242721 0.000000 0.000000 -0.264035 0.000000 0.000000 7.688895 -4.900498 0.773297 -53.887783 7.756097 24.007860 -48.928585 -28.057491 -14.952393 -7.000325 0.000000 0.000000 -7.692362 4.896988 0.773203 53.883286 -7.758317 24.006573 48.923084 28.054810 -14.949429 6.996825 0.000000 0.000000 -7.025044 8.128858 2.898645 13.078233 -3.062464 -0.233164 -2.518382 -0.986814 3.576680 -6.525444 -6.164493 -6.228776 13.023112 5.876436 0.176146 -2.364174 3.596770 -8.913136 
19.995884 43.519489 1.354684 2.666559 0.000000 0.000000 5.620739 -0.061638 -0.040982 -4.608283 -0.137341 -0.585558 4.030847 0.000000 0.000000 -0.264035 0.000000 0.000000 7.688895 -4.900498 0.773297 -53.887783 7.756097 24.007860 -48.928585 -28.057489 -14.952391 -7.000325 0.000000 0.000000 -7.692361 4.896988 0.773203 53.883286 -7.758316 24.006571 48.923084 28.054810 -14.949429 6.996825 0.000000 0.000000 -6.620125 8.139807 3.001912 13.078232 -3.062464 -0.233164 -2.518382 -0.986814 3.576680 -6.115789 -6.186685 -6.410886 13.023112 5.876436 0.176146 -2.364174 3.596770 -8.913136 
